<svg width="626" height="758" viewBox="0 0 626 758" fill="none" xmlns="http://www.w3.org/2000/svg">
<path d="M372.091 756.005C336.857 750.277 296.91 733.951 271.803 715.051C238.479 689.949 215.649 656.492 203.7 615.275C199.408 600.42 192.978 557.872 194.765 556.068C195.29 555.56 208.185 554.404 223.428 553.51C238.671 552.599 256.647 551.146 263.358 550.252C270.769 549.289 275.973 549.271 276.568 550.252C277.112 551.128 277.76 558.888 277.988 567.506C278.881 601.156 291.444 627.712 316.323 648.504C326.642 657.14 352.485 669.91 367.185 673.641C400.019 681.979 458.187 680.63 486.553 670.856C491.809 669.051 496.978 667.58 498.029 667.597C499.08 667.597 501.884 670.943 504.249 675.042C529.987 719.43 535.856 730.115 535.856 732.515C535.856 737.787 506.176 749.839 481.542 754.569C461.884 758.352 392.135 759.263 372.091 756.005ZM127.31 751.836C115.116 744.093 94.9321 724.335 83.3509 708.797C70.4207 691.42 60.6968 672.292 54.6521 652.305C50.5348 638.66 49.9215 633.229 49.2032 604.011C48.0118 554.771 52.5321 531.684 70.0703 497.386C82.142 473.791 96.6491 454.873 122.264 429.281C160.95 390.639 187.739 373.349 295.824 317.243C351.82 288.165 380.01 272.61 403.944 257.563C463.724 219.972 523.312 162.955 542.882 124.628C554.849 101.19 557.302 104.589 548.156 131.897C535.015 171.118 518.984 197.305 489.532 227.697C455.331 262.976 407.938 297.396 326.485 346.163C208.168 416.984 164.892 459.918 142.308 528.864C133.6 555.402 130.832 582.431 130.727 641.305C130.674 675.988 131.48 696.097 133.583 713.124C138.348 751.854 138.751 756.916 136.982 756.916C136.071 756.916 131.725 754.639 127.31 751.836ZM22.0813 628.71C5.59437 592.993 1.52954 576.177 0.250537 538.551C-1.20368 496.23 3.50941 471.409 18.6823 441.315C39.6545 399.747 83.2984 356.708 136.544 325.108C147.301 318.732 189.701 296.678 230.77 276.096C313.344 234.721 339.065 220.515 370.286 199.022C450.04 144.107 499.869 87.2294 533.456 12.7477C542.234 -6.69596 542.847 -4.83922 537.521 24.8518C526.238 87.5797 497.907 139.5 448.691 187.723C401.123 234.301 359.511 262.258 261.764 313.319C157.27 367.902 133.25 383.562 95.703 421.678C72.418 445.309 63.9556 456.66 51.5509 480.833C30.0181 522.803 21.0826 570.291 25.9884 616.658C27.1272 627.466 27.6879 636.698 27.2148 637.171C26.7418 637.644 24.4291 633.842 22.0813 628.71ZM172.303 536.326L158.287 535.328L158.637 530.318C159.443 519.02 187.949 469.167 196.972 463.246C199.285 461.739 212.688 459.305 229.596 457.343C245.382 455.486 263.796 452.315 270.489 450.266C310.804 437.987 336.068 409.679 345.705 365.992C347.334 358.6 349.997 351.401 351.592 349.982C355.552 346.496 411.915 310.972 420.185 306.75C423.812 304.894 427.281 303.878 427.894 304.473C430.137 306.715 428.945 359.021 426.3 374.383C416.646 430.647 384.566 478.293 337.873 505.759C307.422 523.679 271.925 533.559 228.457 536.239C200.879 537.938 195.273 537.955 172.303 536.326ZM472.782 457.273C462.655 454.61 448.463 451.93 441.245 451.317C418.293 449.355 419.589 451.51 428.315 429.824C432.485 419.454 438.004 402.095 440.579 391.252C443.382 379.375 446.098 371.545 447.395 371.545C451.95 371.545 481.315 377.133 494.683 380.531C515.182 385.751 535.856 394.089 535.856 397.137C535.856 401.044 529.882 412.044 513.342 438.547C501.604 457.395 497.556 462.58 494.753 462.37C492.791 462.247 482.909 459.935 472.782 457.273ZM51.7087 365.117C51.0604 364.486 50.5348 342.099 50.5348 315.386C50.5348 272.715 50.8676 266.689 53.303 265.761C54.8273 265.165 73.3641 264.693 94.4765 264.693H132.882V286.308V307.942L120.179 315.456C103.955 325.073 70.9989 349.807 62.0108 359.126C54.9149 366.465 53.7411 367.149 51.7087 365.117ZM268.667 228.625C248.763 222.67 229.21 220.97 180.03 220.935C156.342 220.918 117.902 220.375 94.6167 219.744L52.2868 218.588V178.562V138.554L108.791 139.447C241.808 141.567 256.98 142.057 269.876 144.737C289.989 148.924 303.813 153.863 326.485 165.004C348.578 175.865 360.247 184.027 358.25 187.268C356.831 189.528 314.676 215.505 295.824 225.7L282.683 232.812L268.667 228.625ZM390.435 127.833C390.435 126.747 387.632 123.191 384.198 119.968L377.943 114.083L383.76 107.093C386.948 103.24 390.347 100.122 391.311 100.139C392.275 100.157 396.322 103.135 400.317 106.743L407.57 113.312L400.755 119.04C397.005 122.175 393.939 125.889 393.939 127.29C393.939 128.674 393.151 129.813 392.187 129.813C391.224 129.813 390.435 128.919 390.435 127.833ZM591.134 92.134C587.823 83.4632 578.291 74.5121 570.582 72.813C567.867 72.2174 565.641 71.0613 565.641 70.2205C565.641 69.3972 569.759 66.5069 574.787 63.7918C582.268 59.7804 584.739 57.188 588.313 49.6732C590.731 44.6109 593.114 40.4944 593.622 40.4944C594.13 40.5119 596.705 44.4357 599.351 49.2178C603.293 56.3822 606.079 58.9046 615.085 63.4414L626 68.9593L617.397 73.1108C606.061 78.576 601.699 82.9027 598.878 91.4158C597.599 95.2871 596.005 98.7905 595.339 99.2109C594.673 99.6313 592.781 96.4432 591.134 92.134ZM446.606 70.4833C442.629 62.6707 434.675 55.4538 426.142 51.8804C422.883 50.5316 420.22 49.0251 420.22 48.5521C420.22 48.0792 424.863 45.2064 430.557 42.176C439.178 37.5866 441.771 35.0467 446.168 26.8488L451.424 17.0393L454.298 23.9234C458.117 33.0147 463.146 38.1822 473.22 43.3146C477.793 45.6443 481.542 48.2369 481.542 49.0952C481.542 49.9535 479.142 51.4775 476.216 52.511C467.281 55.6114 461.008 61.1293 457.014 69.3972C454.911 73.7239 452.493 77.2623 451.635 77.2623C450.776 77.2623 448.516 74.2143 446.606 70.4833Z" fill="url(#paint0_linear_4_7)"/>
<defs>
<linearGradient id="paint0_linear_4_7" x1="36.9269" y1="135.372" x2="377.992" y2="481.78" gradientUnits="userSpaceOnUse">
<stop stop-color="#1D4ED8"/>
<stop offset="1" stop-color="#14B8A6"/>
</linearGradient>
</defs>
</svg>
